<?xml version="1.0" encoding="iso-8859-1"?>
<!-- Generator: Adobe Illustrator 19.0.0, SVG Export Plug-In . SVG Version: 6.00 Build 0)  -->
<svg version="1.1" id="Capa_1" xmlns="http://www.w3.org/2000/svg" xmlns:xlink="http://www.w3.org/1999/xlink" x="0px" y="0px"
	 viewBox="0 0 512 512" style="enable-background:new 0 0 512 512;" xml:space="preserve">
<g>
	<g>
		<path d="M497,0H15C6.716,0,0,6.716,0,15v482c0,8.284,6.716,15,15,15h482c8.284,0,15-6.716,15-15V15C512,6.716,505.284,0,497,0z
			 M482,482H30V30h452V482z"/>
	</g>
</g>
<g>
	<g>
		<path d="M328.94,178.205l-62.331-62.331c-5.709-5.711-15.25-5.969-21.217,0l-62.332,62.331c-5.858,5.857-5.858,15.355,0,21.212
			c5.857,5.857,15.355,5.857,21.212,0L241,162.689V303.71c0,8.284,6.716,14.999,15,14.999s15-6.716,15-14.999V162.689l36.728,36.728
			c5.858,5.858,15.355,5.857,21.212,0C334.798,193.56,334.798,184.062,328.94,178.205z"/>
	</g>
</g>
<g>
	<g>
		<path d="M287.961,370.523h-63.922c-8.284,0-15,6.716-15,14.999c0,8.283,6.716,14.999,15,14.999h63.922c8.284,0,15-6.716,15-14.999
			C302.961,377.239,296.245,370.523,287.961,370.523z"/>
	</g>
</g>
<g>
</g>
<g>
</g>
<g>
</g>
<g>
</g>
<g>
</g>
<g>
</g>
<g>
</g>
<g>
</g>
<g>
</g>
<g>
</g>
<g>
</g>
<g>
</g>
<g>
</g>
<g>
</g>
<g>
</g>
</svg>
