<?xml version="1.0" encoding="iso-8859-1"?>
<!-- Generator: Adobe Illustrator 19.0.0, SVG Export Plug-In . SVG Version: 6.00 Build 0)  -->
<svg version="1.1" id="Layer_1" xmlns="http://www.w3.org/2000/svg" xmlns:xlink="http://www.w3.org/1999/xlink" x="0px" y="0px"
	 viewBox="0 0 512 512" style="enable-background:new 0 0 512 512;" xml:space="preserve">
<g>
	<g>
		<path d="M461.913,200.348H436.9c-3.492-11.38-8.052-22.38-13.64-32.904l17.695-17.695c19.529-19.528,19.529-51.305,0-70.834
			l-7.868-7.868c-9.461-9.461-22.038-14.671-35.418-14.671s-25.957,5.211-35.418,14.672l-17.691,17.693
			c-10.526-5.589-21.53-10.15-32.907-13.64V50.087C311.652,22.469,289.183,0,261.565,0h-11.13
			c-27.618,0-50.087,22.469-50.087,50.087V75.1c-11.38,3.492-22.38,8.052-32.904,13.64l-17.695-17.695
			c-19.528-19.529-51.306-19.529-70.834,0l-7.869,7.869c-19.529,19.528-19.529,51.305,0,70.834l17.695,17.696
			c-5.589,10.525-10.15,21.525-13.644,32.904h-25.01C22.469,200.349,0,222.818,0,250.436v11.13
			c0,27.618,22.469,50.087,50.087,50.087H75.1c3.492,11.38,8.052,22.38,13.64,32.904l-17.695,17.694
			c-19.529,19.528-19.529,51.305,0,70.834l7.868,7.868c9.461,9.461,22.038,14.671,35.418,14.671s25.957-5.211,35.418-14.672
			l17.692-17.694c10.527,5.589,21.528,10.151,32.907,13.644v25.011c0,27.618,22.469,50.087,50.087,50.087h11.13
			c27.618,0,50.087-22.469,50.087-50.087V436.9c11.38-3.492,22.38-8.052,32.904-13.64l17.695,17.695
			c19.528,19.529,51.306,19.529,70.834,0l7.868-7.868c9.461-9.461,14.671-22.038,14.671-35.418s-5.211-25.957-14.672-35.418
			l-17.693-17.691c5.589-10.526,10.15-21.53,13.64-32.907h25.012c27.618,0,50.087-22.469,50.087-50.087v-11.13
			C512,222.817,489.531,200.348,461.913,200.348z M478.609,261.565c0,9.206-7.49,16.696-16.696,16.696h-37.81
			c-7.776,0-14.523,5.368-16.269,12.946c-3.86,16.746-10.45,32.646-19.587,47.255c-4.124,6.593-3.149,15.161,2.351,20.659
			l26.745,26.741c3.153,3.153,4.891,7.346,4.891,11.806s-1.737,8.653-4.891,11.806l-7.868,7.868
			c-3.153,3.153-7.346,4.89-11.806,4.89s-8.652-1.736-11.806-4.89l-26.748-26.748c-5.5-5.501-14.068-6.472-20.66-2.349
			c-14.603,9.136-30.5,15.725-47.248,19.586c-7.578,1.746-12.946,8.493-12.946,16.269v37.811c0,9.206-7.49,16.696-16.696,16.696
			h-11.13c-9.206,0-16.696-7.49-16.696-16.696v-37.805c0-7.775-5.366-14.52-12.941-16.268
			c-16.748-3.866-32.649-10.458-47.261-19.594c-2.73-1.707-5.797-2.54-8.846-2.54c-4.314,0-8.59,1.67-11.812,4.892l-26.741,26.745
			c-3.153,3.153-7.346,4.891-11.806,4.891c-4.46,0-8.653-1.737-11.806-4.891l-7.868-7.868c-3.153-3.153-4.89-7.346-4.89-11.806
			s1.736-8.652,4.89-11.806l26.748-26.748c5.5-5.498,6.473-14.068,2.349-20.66c-9.136-14.603-15.725-30.5-19.586-47.248
			c-1.747-7.579-8.495-12.947-16.27-12.947h-37.81c-9.206,0-16.696-7.49-16.696-16.696v-11.13c0-9.206,7.49-16.696,16.696-16.696
			h37.805c7.775,0,14.521-5.367,16.268-12.943c3.863-16.747,10.456-32.644,19.593-47.253c4.124-6.593,3.15-15.161-2.35-20.659
			l-26.748-26.748c-3.153-3.153-4.89-7.346-4.89-11.806c0-4.46,1.736-8.652,4.89-11.806l7.869-7.869
			c3.153-3.153,7.346-4.89,11.806-4.89c4.46,0,8.652,1.736,11.806,4.89l26.748,26.748c5.5,5.501,14.068,6.472,20.66,2.349
			c14.603-9.136,30.5-15.725,47.248-19.586c7.579-1.745,12.947-8.492,12.947-16.268v-37.81c0-9.206,7.49-16.696,16.696-16.696h11.13
			c9.206,0,16.696,7.49,16.696,16.696v37.81c0,7.776,5.368,14.523,12.946,16.269c16.746,3.86,32.646,10.45,47.255,19.587
			c6.594,4.123,15.161,3.15,20.659-2.351l26.741-26.745c3.153-3.153,7.346-4.891,11.806-4.891s8.653,1.737,11.806,4.891l7.868,7.868
			c3.153,3.153,4.89,7.346,4.89,11.806s-1.736,8.652-4.89,11.806l-26.748,26.748c-5.5,5.498-6.474,14.068-2.349,20.66
			c9.136,14.603,15.725,30.5,19.586,47.248c1.746,7.578,8.493,12.946,16.269,12.946h37.811c9.206,0,16.696,7.49,16.696,16.696
			V261.565z"/>
	</g>
</g>
<g>
	<g>
		<path d="M256,133.565c-67.51,0-122.435,54.924-122.435,122.435c0,67.511,54.924,122.435,122.435,122.435
			c67.511,0,122.435-54.924,122.435-122.435C378.435,188.489,323.511,133.565,256,133.565z M256,166.957
			c18.529,0,35.75,5.694,50.016,15.417l-28.435,28.435c-6.539-3.135-13.857-4.895-21.581-4.895c-7.723,0-15.042,1.76-21.581,4.895
			l-28.435-28.435C220.25,172.651,237.471,166.957,256,166.957z M272.696,256c0,4.566-1.845,8.707-4.826,11.724
			c-0.024,0.024-0.052,0.044-0.077,0.069c-0.025,0.024-0.045,0.051-0.069,0.077c-3.017,2.981-7.158,4.826-11.724,4.826
			c-4.566,0-8.706-1.845-11.724-4.826c-0.024-0.024-0.044-0.052-0.069-0.077c-0.025-0.025-0.052-0.045-0.077-0.069
			c-2.981-3.016-4.826-7.158-4.826-11.724c0-4.566,1.845-8.707,4.826-11.724c0.024-0.024,0.052-0.044,0.077-0.069
			c0.024-0.025,0.044-0.051,0.069-0.077c3.017-2.981,7.158-4.826,11.724-4.826c4.566,0,8.706,1.845,11.724,4.826
			c0.024,0.024,0.044,0.052,0.069,0.077c0.024,0.024,0.052,0.044,0.077,0.069C270.85,247.293,272.696,251.434,272.696,256z
			 M166.957,256c0-18.529,5.694-35.75,15.417-50.016l28.435,28.435c-3.135,6.539-4.895,13.857-4.895,21.581
			c0,7.723,1.76,15.042,4.895,21.581l-28.435,28.435C172.651,291.75,166.957,274.529,166.957,256z M256,345.043
			c-18.529,0-35.75-5.694-50.016-15.417l28.435-28.435c6.539,3.135,13.857,4.895,21.581,4.895c7.723,0,15.042-1.76,21.581-4.895
			l28.435,28.435C291.75,339.349,274.529,345.043,256,345.043z M329.627,306.016l-28.435-28.435
			c3.135-6.539,4.895-13.857,4.895-21.581c0-7.723-1.76-15.042-4.895-21.581l28.435-28.435
			c9.722,14.266,15.417,31.487,15.417,50.016C345.043,274.529,339.349,291.75,329.627,306.016z"/>
	</g>
</g>
<g>
</g>
<g>
</g>
<g>
</g>
<g>
</g>
<g>
</g>
<g>
</g>
<g>
</g>
<g>
</g>
<g>
</g>
<g>
</g>
<g>
</g>
<g>
</g>
<g>
</g>
<g>
</g>
<g>
</g>
</svg>
